<svg xmlns="http://www.w3.org/2000/svg" xmlns:xlink="http://www.w3.org/1999/xlink" viewBox="-2 -2 28 28" width="28" height="28"><g><g fill="none"><path fill="url(#i49_g_R_0_-a)" d="M14.549 8H9.45l-.37 11.925A2 2 0 0 0 11.079 22h1.842a2 2 0 0 0 1.999-2.075z" data-glass="origin" mask="url(#i49_g_R_0_-b)"></path><path fill="url(#i49_g_R_0_-a)" d="M14.549 8H9.45l-.37 11.925A2 2 0 0 0 11.079 22h1.842a2 2 0 0 0 1.999-2.075z" clip-path="url(#i49_g_R_0_-c)" data-glass="clone" filter="url(#i49_g_R_0_-e)"></path><path fill="url(#i49_g_R_0_-f)" d="M3 9V5a3 3 0 0 1 3-3h8.74a3 3 0 0 1 1.992.758l3.261 2.898A3 3 0 0 1 21 7.898V9.5a2.5 2.5 0 0 1-2.5 2.5H6a3 3 0 0 1-3-3" data-glass="blur"></path><path fill="url(#i49_g_R_0_-g)" d="M3 9V5a3 3 0 0 1 3-3h8.74a3 3 0 0 1 1.992.758l3.261 2.898A3 3 0 0 1 21 7.898V9.5a2.5 2.5 0 0 1-2.5 2.5v-.75a1.75 1.75 0 0 0 1.75-1.75V7.898c0-.562-.21-1.1-.585-1.512l-.17-.17-3.26-2.898a2.25 2.25 0 0 0-1.496-.568H6A2.25 2.25 0 0 0 3.75 5v4A2.25 2.25 0 0 0 6 11.25V12a3 3 0 0 1-3-3m15.5 2.25V12H6v-.75z"></path><defs><linearGradient id="i49_g_R_0_-a" x1="12" x2="12" y1="8" y2="22" gradientUnits="userSpaceOnUse"><stop stop-color="#575757"></stop><stop offset="1" stop-color="#151515"></stop></linearGradient><linearGradient id="i49_g_R_0_-f" x1="12" x2="12" y1="2" y2="12" gradientUnits="userSpaceOnUse"><stop stop-color="#E3E3E5" stop-opacity=".6"></stop><stop offset="1" stop-color="#BBBBC0" stop-opacity=".6"></stop></linearGradient><linearGradient id="i49_g_R_0_-g" x1="12" x2="12" y1="2" y2="7.791" gradientUnits="userSpaceOnUse"><stop stop-color="#fff"></stop><stop offset="1" stop-color="#fff" stop-opacity="0"></stop></linearGradient><clipPath id="i49_g_R_0_-c"><path fill="url(#i49_g_R_0_-f)" d="M3 9V5a3 3 0 0 1 3-3h8.74a3 3 0 0 1 1.992.758l3.261 2.898A3 3 0 0 1 21 7.898V9.5a2.5 2.5 0 0 1-2.5 2.5H6a3 3 0 0 1-3-3"></path></clipPath><filter id="i49_g_R_0_-e" width="400%" height="400%" x="-100%" y="-100%" filterUnits="objectBoundingBox" primitiveUnits="userSpaceOnUse"><feGaussianBlur width="100%" height="100%" x="0%" y="0%" in="SourceGraphic" result="blur" stdDeviation="2"></feGaussianBlur></filter><mask id="i49_g_R_0_-b"><rect width="100%" height="100%" fill="#FFF"></rect><path fill="#000" d="M3 9V5a3 3 0 0 1 3-3h8.74a3 3 0 0 1 1.992.758l3.261 2.898A3 3 0 0 1 21 7.898V9.5a2.5 2.5 0 0 1-2.5 2.5H6a3 3 0 0 1-3-3"></path></mask></defs></g></g></svg>